 <svg style="display: none;" xmlns="http://www.w3.org/2000/svg">
        <symbol id="icon-calendar" viewBox="0 0 59 59">
            <g>
                <path d="M51.179,40.429l-5.596,8.04l-3.949-3.241c-0.426-0.352-1.057-0.288-1.407,0.138c-0.351,0.427-0.289,1.058,0.139,1.407
            		l4.786,3.929c0.18,0.148,0.404,0.228,0.634,0.228c0.045,0,0.091-0.003,0.137-0.01c0.276-0.038,0.524-0.19,0.684-0.419l6.214-8.929
            		c0.315-0.453,0.204-1.076-0.25-1.392C52.116,39.861,51.494,39.975,51.179,40.429z" />
                <path d="M52,34.479V15V5c0-0.553-0.448-1-1-1h-5V1c0-0.553-0.448-1-1-1h-7c-0.552,0-1,0.447-1,1v3H15V1c0-0.553-0.448-1-1-1H7
            		C6.448,0,6,0.447,6,1v3H1C0.448,4,0,4.447,0,5v10v41c0,0.553,0.448,1,1,1h38.104c2.002,1.26,4.362,2,6.896,2
            		c7.168,0,13-5.832,13-13C59,40.997,56.154,36.651,52,34.479z M39,2h5v3v3h-5V5V2z M8,2h5v3v3H8V5V2z M2,6h4v3c0,0.553,0.448,1,1,1
            		h7c0.552,0,1-0.447,1-1V6h22v3c0,0.553,0.448,1,1,1h7c0.552,0,1-0.447,1-1V6h4v8H2V6z M2,55V16h48v17.636
            		c-0.196-0.063-0.396-0.114-0.596-0.169c-0.185-0.051-0.37-0.101-0.557-0.144c-0.169-0.038-0.34-0.071-0.511-0.102
            		c-0.244-0.045-0.489-0.082-0.735-0.113c-0.137-0.017-0.273-0.036-0.411-0.049C46.796,33.024,46.399,33,46,33
            		c-0.338,0-0.669,0.025-1,0.051V32v-2v-9h-9h-2h-7h-2h-7h-2H7v9v2v7v2v9h9h2h7h2h6.636c0.029,0.088,0.065,0.173,0.095,0.26
            		c0.084,0.243,0.167,0.487,0.266,0.724c0.055,0.133,0.12,0.26,0.18,0.39c0.115,0.254,0.232,0.507,0.363,0.753
            		c0.058,0.107,0.123,0.21,0.184,0.316c0.148,0.259,0.298,0.515,0.464,0.763c0.061,0.091,0.128,0.177,0.191,0.267
            		c0.176,0.25,0.356,0.498,0.551,0.736c0.072,0.088,0.15,0.17,0.224,0.256c0.155,0.18,0.303,0.364,0.468,0.536H2z M40.313,34.328
            		c-0.108,0.052-0.218,0.101-0.324,0.156c-0.188,0.098-0.37,0.206-0.552,0.313c-0.159,0.093-0.318,0.188-0.473,0.287
            		c-0.157,0.102-0.31,0.206-0.462,0.314c-0.173,0.122-0.341,0.25-0.508,0.38c-0.134,0.105-0.268,0.209-0.397,0.32
            		c-0.175,0.148-0.342,0.305-0.509,0.462c-0.115,0.109-0.234,0.214-0.345,0.326c-0.181,0.184-0.352,0.379-0.522,0.574
            		c-0.072,0.083-0.151,0.159-0.222,0.244V32h7v1.362c-0.017,0.004-0.033,0.01-0.049,0.014C42.029,33.599,41.147,33.92,40.313,34.328z
            		 M33.57,42.199c-0.035,0.115-0.058,0.233-0.09,0.349c-0.08,0.29-0.162,0.58-0.222,0.879c-0.047,0.231-0.073,0.467-0.107,0.701
            		c-0.027,0.189-0.065,0.375-0.085,0.567C33.023,45.126,33,45.562,33,46c0,0.361,0.02,0.726,0.053,1.092
            		c0.006,0.067,0.006,0.135,0.013,0.202c0.016,0.162,0.048,0.319,0.07,0.479c0,0,0,0.001,0,0.001
            		c0.011,0.076,0.015,0.151,0.027,0.226H27v-7h7v0.007c-0.01,0.024-0.016,0.049-0.026,0.073
            		C33.824,41.445,33.687,41.818,33.57,42.199z M9,41h7v7H9V41z M9,32h7v7H9V32z M43,30h-7v-7h7V30z M34,30h-7v-7h7V30z M34,39h-7v-7
            		h7V39z M18,32h7v7h-7V32z M25,30h-7v-7h7V30z M16,30H9v-7h7V30z M18,41h7v7h-7V41z M46,57c-2.258,0-4.359-0.686-6.107-1.858
            		c-0.341-0.228-0.663-0.476-0.972-0.736c-0.108-0.092-0.21-0.19-0.314-0.286c-0.197-0.179-0.388-0.363-0.57-0.554
            		c-0.117-0.123-0.23-0.248-0.341-0.375c-0.164-0.189-0.318-0.384-0.468-0.583c-0.096-0.127-0.195-0.25-0.286-0.381
            		c-0.221-0.321-0.429-0.651-0.615-0.993c-0.043-0.08-0.077-0.164-0.118-0.245c-0.146-0.286-0.282-0.576-0.403-0.874
            		c-0.052-0.13-0.097-0.263-0.145-0.395c-0.094-0.262-0.18-0.528-0.255-0.797c-0.017-0.062-0.032-0.124-0.048-0.186
            		c-0.113-0.44-0.196-0.877-0.255-1.312c-0.004-0.031-0.01-0.062-0.014-0.094C35.031,46.882,35,46.437,35,46
            		c0-0.379,0.019-0.755,0.058-1.128c0.003-0.031,0.011-0.061,0.014-0.092c0.038-0.341,0.088-0.681,0.158-1.016
            		c0.007-0.032,0.018-0.063,0.025-0.095c0.072-0.332,0.157-0.662,0.26-0.988c0.012-0.038,0.029-0.075,0.041-0.113
            		c0.103-0.312,0.217-0.622,0.349-0.926c0.124-0.286,0.258-0.567,0.405-0.84l0.099-0.171c0.04-0.072,0.087-0.14,0.129-0.211
            		c0.174-0.293,0.36-0.577,0.557-0.851c0.049-0.068,0.1-0.135,0.151-0.202c0.18-0.238,0.37-0.467,0.568-0.688
            		c0.069-0.077,0.138-0.155,0.209-0.23c0.196-0.208,0.402-0.405,0.613-0.596c0.075-0.068,0.148-0.138,0.225-0.204
            		c0.248-0.212,0.505-0.411,0.77-0.6c0.042-0.03,0.082-0.063,0.124-0.093c1.305-0.902,2.804-1.52,4.412-1.79l0.021-0.003
            		C44.778,35.064,45.381,35,46,35c0.389,0,0.776,0.021,1.16,0.063c0.06,0.006,0.118,0.02,0.178,0.027
            		c0.328,0.041,0.655,0.09,0.978,0.16c0.04,0.009,0.078,0.021,0.117,0.03c0.344,0.079,0.685,0.171,1.022,0.284
            		c0.023,0.008,0.045,0.017,0.068,0.025c0.345,0.118,0.685,0.253,1.022,0.406C54.347,37.729,57,41.557,57,46
            		C57,52.065,52.065,57,46,57z" />
            </g>
        </symbol>
        <symbol id="icon-team" viewBox="0 0 423.803 423.803">
            <g>
                <path d="M422.951,368.901l-16.8-58.4c-0.4-1.2-1.2-2.4-2-3.2c-10.4-31.6-36-56-68.4-64.4l-4.8-0.8c-7.2-2-15.2,0.4-20.4,6.4
            			c-17.6,20-40,21.6-63.6,21.6c-23.6,0-46-1.6-63.6-21.6c-5.2-6-13.2-8.4-20.4-6.4l-4.8,1.2c-24.4,6.4-45.2,22-58.4,42.8h-50.4
            			c-0.4,0-0.4,0-0.8-0.4c0-0.4-0.4-0.8-0.4-1.6l10.4-37.2c9.2-29.2,26.8-38,61.2-46.8c1.6-0.4,2.8-1.2,3.6-2c2.8,2.4,6,4.4,9.2,6
            			c1.2,0.8,2.4,0.8,3.6,0.8c2.8,0,5.6-1.6,7.2-4.4c2-4,0.4-8.8-3.6-10.8c-18.4-9.6-31.6-36.8-31.6-64.8c0-24.8,20.4-45.2,45.2-45.2
            			c4.8,0,9.2,0.8,13.6,2c-4.4,10.8-6.8,22.4-6.8,34.8c0,68.4,41.2,126,90,126c48,0,90.4-58.8,90.4-126c0-50-40.4-90.4-90.4-90.4
            			c-31.6,0-59.6,16.4-75.6,41.2c-6.8-2.4-14-3.6-21.2-3.6c-21.6,0-40.8,11.6-51.6,28.8c-0.8-0.8-1.6-1.2-2.4-1.6
            			c-6-3.2-12-4.4-18.8-4.4c-22.4-0.4-40.4,17.6-40.4,40c0,12.8,3.6,24.8,9.2,34.4c-18.4,4.8-34.8,12-42.4,36.4l-6.4,23.2
            			c-1.2,4-0.4,8.4,2,11.6c2.4,3.6,6.8,5.6,11.2,5.6h30.8c-0.4,1.6-1.2,3.2-1.6,4.8l-10.4,37.6c-1.6,5.2-0.4,10.8,3.2,15.2
            			c3.2,4.4,8,6.8,13.6,6.8h42.4c-1.2,2.8-2,5.6-2.8,8.4l-16.8,58.8c-1.6,6.8-0.4,14,4,19.6c4.4,5.6,10.8,8.8,17.6,8.8h240h13.6h54
            			c6.8,0,13.6-3.2,17.6-8.8C423.351,383.301,424.951,376.101,422.951,368.901z M184.151,82.901c0.4-0.4,0.8-0.8,1.2-1.6
            			c0.4-0.4,0.4-1.2,0.8-1.6c12.4-22.4,36.4-37.6,64-37.6c33.2,0,61.2,22,70.8,52c-14,2.8-28.8-2.8-37.6-14.8
            			c-2.8-3.6-7.6-4.4-11.2-1.6c-1.6,1.2-2.4,2.4-2.8,4c-0.4,0.4-0.4,0.8-0.8,1.2c-11.2,22.8-48.8,32.4-91.6,24
            			C178.151,98.501,180.551,90.501,184.151,82.901z M206.551,125.701c32,0,58.4-10,72-28.8c10,8.8,22.4,13.6,35.6,13.6
            			c3.2,0,6.8-0.4,10-1.2c0.4,2.4,0.4,4.4,0.4,6.8c0,58.8-34.8,110.4-74.4,110.4c-38,0-71.2-47.6-74-103.6
            			C186.551,124.901,196.951,125.701,206.551,125.701z M16.951,221.701l5.6-20c4.8-16.4,14.8-21.2,34.8-26c1.2-0.4,2.4-0.8,3.2-1.6
            			c2,1.6,3.6,2.8,6,4c1.2,0.8,2.4,0.8,3.6,0.8c2.8,0,5.6-1.6,7.2-4.4c2-4,0.4-8.8-3.2-10.8c-10.4-5.6-18-21.2-18-37.2
            			c0-13.6,10.8-24.4,24.4-24.4c4.4,0,8,0.8,11.6,2.8c1.2,0.4,2,0.8,3.2,0.8c-2,6-3.2,12.4-3.2,19.2c0,22.8,7.6,45.2,19.6,60.8
            			c-24,6-45.2,14-59.2,36H16.951z M406.551,379.301c-0.8,0.8-2.4,2.4-5.2,2.4h-54h-13.6h-240c-2.8,0-4.4-1.6-5.2-2.4
            			c-1.2-1.6-1.6-4-1.2-5.6l16.8-58.4c8-27.6,30-49.2,58-56.4l4.8-1.2c1.2-0.4,3.2,0.4,4.4,1.6c22,25.2,49.2,27.2,75.6,27.2
            			c26.4,0,53.6-2,75.6-27.2c1.2-1.2,2.8-2,4.8-1.6l4.8,1.2c27.6,7.2,50,28.8,58,56.4l7.2,24.8c0.4,1.2,0.8,2,1.6,2.8l8.8,30.4
            			C408.151,375.301,407.751,377.701,406.551,379.301z" />
            </g>
        </symbol>
    </svg>